# xmcd CD database file
#
# Track frame offsets:
#	150
#	17880
#	33033
#	49987
#
# Disc length: 928 seconds
#
# Revision: 0
# Processed by: cddbd v1.5.1PL2 Copyright (c) Steve Scherf et al.
# Submitted via: CDex 1.51
#
DISCID=29039e04
DTITLE=Henry Eye - One night stand
DYEAR=2005
DGENRE=Country
TTITLE0=One night stand
TTITLE1=Save a horse, ride a cowboy (Duet with Bob Style)
TTITLE2=Good old trains
TTITLE3=Remember when
EXTD=YEAR: 2005
EXTT0=
EXTT1=
EXTT2=
EXTT3=
PLAYORDER=
